<?xml version="1.0" encoding="utf-8"?>
<!-- Generator: Adobe Illustrator 16.0.4, SVG Export Plug-In . SVG Version: 6.00 Build 0)  -->
<!DOCTYPE svg PUBLIC "-//W3C//DTD SVG 1.1//EN" "http://www.w3.org/Graphics/SVG/1.1/DTD/svg11.dtd">
<svg version="1.1" id="Layer_1" xmlns="http://www.w3.org/2000/svg" xmlns:xlink="http://www.w3.org/1999/xlink" x="0px" y="0px"
	 width="841.89px" height="595.28px" viewBox="0 0 841.89 595.28" enable-background="new 0 0 841.89 595.28" xml:space="preserve">
<g>
	<defs>
		<rect id="SVGID_1_" width="841.89" height="595.28"/>
	</defs>
	<clipPath id="SVGID_2_">
		<use xlink:href="#SVGID_1_"  overflow="visible"/>
	</clipPath>
	<path clip-path="url(#SVGID_2_)" fill="#12100B" d="M340.927,317.969c0.561-0.075,1.173-0.144,1.833-0.205
		c0.643-0.059,1.366-0.148,2.169-0.267c0.795-0.117,1.681-0.288,2.634-0.509c0.836-0.195,1.751-0.456,2.726-0.782
		c0.006-0.79-0.076-1.575-0.244-2.339c-0.17-0.774-0.437-1.563-0.795-2.354c-1.051,0.136-1.992,0.272-2.804,0.411
		c-0.957,0.163-2.009,0.371-3.13,0.618c-1.146,0.252-2.274,0.571-3.352,0.947c-0.168,0.058-0.351,0.04-0.502-0.05
		c-0.153-0.089-0.258-0.242-0.287-0.415c-0.136-0.797-0.435-1.638-0.89-2.501c-0.762-0.014-1.414,0.069-1.973,0.212
		c-0.808,0.206-1.182,0.351-1.354,0.438c-0.051,0.026-0.098,0.05-0.14,0.072c0.051,0.624,0.156,1.413,0.314,2.354
		c0.194,1.148,0.425,2.328,0.683,3.505c0.258,1.173,0.537,2.278,0.829,3.286c0.205,0.707,0.391,1.273,0.555,1.692l3.509-0.633
		c0.004-0.333-0.01-0.674-0.042-1.021c-0.047-0.524-0.097-0.936-0.15-1.23c-0.053-0.29-0.084-0.459-0.094-0.504
		c-0.037-0.165-0.003-0.337,0.093-0.476C340.612,318.083,340.76,317.991,340.927,317.969"/>
	<path clip-path="url(#SVGID_2_)" fill="#12100B" d="M339.505,297.884c1.862,0.201,3.468,0.344,4.773,0.426
		c1.15,0.071,2.329,0.124,3.511,0.156c0.025-0.213,0.049-0.453,0.073-0.72c0.049-0.544,0.082-1.117,0.102-1.72
		c0.02-0.607,0.027-1.211,0.023-1.809c-0.002-0.371-0.015-0.707-0.037-1.005c-0.664-0.07-1.259-0.12-1.772-0.148
		c-0.695-0.036-1.427-0.177-2.176-0.417c-0.258-0.082-0.429-0.328-0.416-0.598l0.072-1.601c0.014-0.296,0.243-0.539,0.539-0.569
		c1.247-0.126,2.252-0.17,2.986-0.13c0.637,0.037,1.012,0.084,1.252,0.13c0.067-0.434,0.13-0.845,0.187-1.233
		c0.085-0.574,0.151-1.119,0.197-1.64c0.046-0.519,0.075-1.033,0.086-1.541c0.008-0.351-0.003-0.708-0.033-1.068
		c-2.409-0.401-4.749-0.714-6.965-0.933c-2.199-0.217-4.531-0.322-6.922-0.315c-0.24,0.964-0.404,1.879-0.489,2.725
		c-0.084,0.837-0.107,1.775-0.067,2.795c0.561,0.039,1.107,0.087,1.639,0.143c0.729,0.077,1.505,0.239,2.305,0.479
		c0.235,0.07,0.403,0.276,0.425,0.52c0.026,0.294,0.025,0.613-0.005,0.946c-0.033,0.371-0.123,0.714-0.267,1.021
		c-0.088,0.188-0.266,0.315-0.47,0.34c-0.818,0.099-1.628,0.109-2.409,0.026c-0.546-0.057-1.086-0.111-1.62-0.16
		c-0.132,0.813-0.231,1.648-0.297,2.489c-0.068,0.863-0.082,1.735-0.045,2.599C335.815,297.425,337.771,297.697,339.505,297.884"/>
	<path clip-path="url(#SVGID_2_)" fill="#12100B" d="M340.901,262.966c-0.333,0.682-0.687,1.516-1.052,2.479
		c-0.321,0.848-0.582,1.801-0.776,2.835c1.514,1.087,3.197,2.043,5.008,2.844c1.903,0.843,4.113,1.572,6.57,2.17
		c0.514-0.137,0.968-0.386,1.382-0.761c0.478-0.431,0.908-0.959,1.278-1.567c0.38-0.627,0.709-1.317,0.979-2.048
		c0.274-0.744,0.489-1.479,0.639-2.185c0.151-0.708,0.243-1.378,0.274-1.992c0.021-0.391,0.014-0.733-0.017-1.024
		c-0.014-0.001-0.027-0.002-0.041-0.003c-0.301-0.015-0.647-0.024-1.038-0.027l-1.259-0.015c-0.307-0.006-0.584-0.011-0.834-0.017
		c-0.021,0.035-0.045,0.073-0.07,0.115c-0.098,0.159-0.291,0.542-0.66,1.464c-0.301,0.754-0.614,1.784-0.928,3.064
		c-0.062,0.252-0.279,0.436-0.538,0.455c-0.262,0.027-0.5-0.13-0.6-0.369c-0.173-0.422-0.276-0.885-0.304-1.377
		c-0.026-0.45-0.013-1.025,0.041-1.757c0.042-0.561,0.139-1.23,0.291-1.994l-2.967-0.179c-0.254,0.75-0.466,1.351-0.634,1.804
		c-0.202,0.544-0.339,0.904-0.412,1.079l-0.067,0.161c-0.07,0.165-0.229,0.339-0.4,0.39c-0.172,0.053-0.378,0.073-0.527-0.026
		c-0.009-0.007-0.049-0.03-0.145-0.046c-0.234-0.039-0.441-0.118-0.611-0.235c-0.167-0.113-0.266-0.303-0.263-0.505
		c0.005-0.3,0.066-0.669,0.186-1.128c0.107-0.405,0.215-0.828,0.324-1.27c0.105-0.423,0.186-0.834,0.243-1.23
		c0.028-0.19,0.04-0.343,0.043-0.464c-0.656-0.209-1.351-0.354-2.076-0.434C341.535,261.782,341.188,262.384,340.901,262.966"/>
	<path clip-path="url(#SVGID_2_)" fill="#12100B" d="M378.304,238.527c1.732-0.811,3.084-1.713,4.024-2.684
		c0.987-1.02,1.662-2.031,2.006-3.005c0.339-0.96,0.449-1.859,0.326-2.67c-0.122-0.807-0.368-1.452-0.731-1.918
		c-0.258-0.336-0.577-0.589-0.979-0.777c-0.437-0.205-0.903-0.357-1.386-0.451c-0.502-0.097-0.992-0.149-1.456-0.154
		c-0.496-0.006-0.906,0.002-1.234,0.024c-0.219,0.018-0.429-0.093-0.547-0.279c-0.117-0.187-0.123-0.422-0.015-0.614
		c0.466-0.827,0.816-1.495,1.042-1.986c0.234-0.506,0.327-0.745,0.365-0.854c-0.394-0.424-0.772-0.742-1.128-0.949
		c-0.544-0.315-0.798-0.395-0.9-0.415c-0.081-0.016-0.151-0.029-0.21-0.04c-1.976,1.118-3.352,2.234-4.09,3.318
		c-0.727,1.066-1.027,2.038-0.894,2.889c0.136,0.867,0.61,1.619,1.45,2.298c0.881,0.712,1.983,1.246,3.275,1.586
		c0.2,0.053,0.359,0.205,0.42,0.403c0.061,0.198,0.016,0.413-0.12,0.57c-0.141,0.164-0.288,0.366-0.44,0.608
		c-0.174,0.278-0.358,0.562-0.552,0.851c-0.187,0.28-0.364,0.554-0.532,0.821c-0.096,0.153-0.185,0.293-0.267,0.421
		c0.307,0.611,0.675,1.16,1.094,1.636C377.253,237.64,377.749,238.1,378.304,238.527"/>
	<path clip-path="url(#SVGID_2_)" fill="#12100B" d="M399.703,224.256l2.491-0.648c0.273-0.071,0.553,0.055,0.683,0.302
		c0.448,0.852,0.815,1.515,1.091,1.971c0.276,0.455,0.417,0.656,0.484,0.741c0.359-0.116,0.749-0.266,1.162-0.448
		c0.562-0.248,1.096-0.512,1.586-0.785c0.483-0.268,0.909-0.54,1.266-0.809c0.171-0.129,0.302-0.235,0.402-0.323
		c-1.023-1.853-1.967-3.468-2.809-4.804c-0.908-1.441-1.717-2.657-2.405-3.615c-0.69-0.959-1.278-1.73-1.748-2.291
		c-0.357-0.426-0.658-0.762-0.898-1.002c-0.417,0.065-0.866,0.154-1.341,0.266c-0.594,0.141-1.19,0.31-1.771,0.504
		c-0.594,0.199-1.167,0.409-1.719,0.632c-0.427,0.172-0.813,0.347-1.148,0.522c-0.352,2.242-0.572,4.538-0.657,6.829
		c-0.083,2.25,0.011,4.732,0.278,7.386c0.767,0.01,1.558-0.041,2.386-0.154c0.837-0.116,1.647-0.32,2.417-0.61
		c-0.124-0.887-0.192-1.921-0.198-3.08C399.253,224.565,399.438,224.325,399.703,224.256 M398.904,221.248
		c-0.05,0.013-0.102,0.019-0.152,0.019c-0.134,0-0.266-0.043-0.372-0.127c-0.148-0.115-0.238-0.291-0.235-0.477l0.054-4.668
		c0.003-0.3,0.226-0.55,0.522-0.589c0.304-0.04,0.578,0.148,0.657,0.437c0.034,0.128,0.129,0.363,0.379,0.759
		c0.23,0.365,0.476,0.742,0.739,1.133l0.765,1.145c0.271,0.403,0.452,0.727,0.554,0.991c0.061,0.155,0.053,0.329-0.02,0.479
		c-0.073,0.15-0.205,0.263-0.365,0.312c-0.025,0.007-0.174,0.043-0.451,0.105L398.904,221.248z"/>
	<path clip-path="url(#SVGID_2_)" fill="#12100B" d="M424.778,219.264c0.038-0.008,0.076-0.011,0.114-0.011
		c0.218,0,0.422,0.118,0.527,0.314c0.262,0.484,0.543,0.955,0.834,1.4c0.305,0.466,0.597,0.937,0.877,1.414
		c0.291,0.497,0.545,1.01,0.758,1.528c0.153,0.377,0.283,0.774,0.387,1.186c0.309-0.033,0.63-0.086,0.961-0.158
		c0.521-0.113,1.057-0.267,1.589-0.459c0.528-0.191,1.036-0.418,1.508-0.673c0.322-0.176,0.615-0.364,0.876-0.563
		c-0.35-0.888-0.719-1.71-1.101-2.451c-0.439-0.852-0.861-1.591-1.255-2.198c-0.14-0.216-0.126-0.498,0.034-0.7
		c0.557-0.7,0.939-1.338,1.137-1.898c0.196-0.559,0.294-1.069,0.29-1.519c-0.005-0.436-0.089-0.835-0.249-1.184
		c-0.181-0.397-0.383-0.753-0.596-1.059c-0.221-0.305-0.569-0.592-1.028-0.845c-0.494-0.272-1.086-0.501-1.758-0.68
		c-0.689-0.183-1.439-0.327-2.229-0.428c-0.81-0.102-1.617-0.177-2.403-0.222c-0.788-0.044-1.562-0.062-2.302-0.044
		c-0.591,0.012-1.127,0.038-1.601,0.077c-0.296,0.793-0.534,1.731-0.711,2.795c-0.207,1.234-0.361,2.549-0.461,3.908
		c-0.099,1.346-0.142,2.728-0.13,4.107c0.013,1.21,0.049,2.345,0.106,3.381c0.702,0.176,1.451,0.283,2.233,0.318
		c0.796,0.037,1.605-0.014,2.409-0.148c0.144-0.844,0.269-1.606,0.377-2.289c0.126-0.787,0.233-1.579,0.325-2.378
		C424.326,219.524,424.521,219.313,424.778,219.264 M424.239,215.848l0.144-1.315c0.047-0.428,0.082-0.846,0.105-1.253
		c0.022-0.397,0.012-0.756-0.032-1.069c-0.03-0.211,0.055-0.422,0.22-0.554c0.168-0.134,0.394-0.167,0.592-0.089
		c0.881,0.342,1.506,0.751,1.912,1.251c0.438,0.539,0.629,1.124,0.563,1.737c-0.064,0.582-0.347,1.15-0.838,1.694
		c-0.451,0.5-1.059,0.971-1.804,1.4c-0.092,0.053-0.196,0.08-0.301,0.08c-0.096,0-0.193-0.023-0.281-0.07
		c-0.183-0.098-0.303-0.283-0.316-0.489C424.176,216.767,424.188,216.322,424.239,215.848"/>
	<path clip-path="url(#SVGID_2_)" fill="#12100B" d="M450.87,230.855c0.358,0.125,0.76,0.24,1.198,0.344
		c0.594,0.14,1.179,0.251,1.739,0.33c0.547,0.076,1.051,0.115,1.499,0.118c0.216-0.003,0.383-0.007,0.514-0.016
		c0.3-2.086,0.52-3.943,0.655-5.527c0.145-1.705,0.23-3.163,0.26-4.334c0.027-1.174,0.023-2.144-0.014-2.881
		c-0.027-0.557-0.065-1.006-0.112-1.341c-0.366-0.197-0.779-0.397-1.23-0.596c-0.552-0.245-1.131-0.468-1.717-0.666
		c-0.593-0.2-1.178-0.377-1.751-0.533c-0.446-0.12-0.858-0.212-1.231-0.275c-1.628,1.573-3.188,3.271-4.643,5.053
		c-1.421,1.744-2.843,3.781-4.229,6.06c0.6,0.467,1.27,0.908,1.996,1.315c0.739,0.414,1.511,0.74,2.296,0.972
		c0.437-0.785,1.006-1.65,1.699-2.578c0.163-0.221,0.458-0.3,0.71-0.195l2.378,0.985c0.258,0.106,0.406,0.376,0.361,0.651
		c-0.153,0.946-0.26,1.691-0.316,2.233C450.875,230.506,450.868,230.75,450.87,230.855 M450.061,223.391
		c-0.229-0.103-0.354-0.159-0.383-0.171c-0.172-0.073-0.303-0.221-0.35-0.401s-0.01-0.373,0.104-0.521l2.856-3.694
		c0.183-0.237,0.512-0.301,0.771-0.154c0.26,0.147,0.372,0.463,0.263,0.741c-0.05,0.127-0.117,0.375-0.157,0.839
		c-0.034,0.43-0.066,0.881-0.093,1.35l-0.079,1.374c-0.027,0.487-0.079,0.854-0.155,1.124c-0.047,0.162-0.158,0.298-0.31,0.373
		c-0.084,0.042-0.176,0.063-0.268,0.063c-0.073,0-0.146-0.013-0.216-0.04c-0.023-0.009-0.163-0.069-0.415-0.184L450.061,223.391z"/>
	<path clip-path="url(#SVGID_2_)" fill="#12100B" d="M478.185,234.008c0.544-0.64,1.003-1.256,1.372-1.842
		c-0.63-0.53-1.219-1.022-1.766-1.475c-0.623-0.517-1.267-0.944-1.911-1.268c-0.628-0.316-1.318-0.528-2.052-0.63
		c-0.225-0.031-0.461-0.046-0.708-0.046c-0.555,0-1.164,0.077-1.821,0.233c-0.656,0.144-1.262,0.4-1.806,0.761
		c-0.562,0.372-1.067,0.809-1.502,1.297c-0.443,0.497-0.835,1.027-1.166,1.576c-0.327,0.544-0.583,1.07-0.761,1.563
		c-0.464,1.227-0.604,2.391-0.421,3.469c0.185,1.086,0.606,2.052,1.255,2.872c0.659,0.832,1.508,1.515,2.523,2.031
		c0.905,0.46,1.881,0.741,2.908,0.838l1.357-2.747c-0.987-0.696-1.674-1.396-2.092-2.128c-0.487-0.852-0.699-1.662-0.632-2.408
		c0.069-0.767,0.386-1.435,0.939-1.987c0.53-0.528,1.184-0.895,1.944-1.09c0.749-0.193,1.556-0.191,2.4,0.004
		C476.928,233.19,477.577,233.517,478.185,234.008"/>
	<path clip-path="url(#SVGID_2_)" fill="#12100B" d="M493.123,251.597c0.529-0.436,1.03-0.941,1.492-1.507
		c-0.295-0.678-0.611-1.297-0.942-1.847c-0.39-0.647-0.897-1.397-1.51-2.229c-0.533-0.727-1.191-1.463-1.958-2.192
		c-1.735,0.68-3.452,1.574-5.107,2.661h-0.001c-1.743,1.14-3.556,2.598-5.391,4.335c-0.164,0.506-0.201,1.022-0.111,1.575
		c0.102,0.633,0.312,1.28,0.622,1.924c0.32,0.66,0.719,1.311,1.188,1.934c0.476,0.635,0.977,1.215,1.487,1.724
		c0.51,0.509,1.021,0.95,1.522,1.311c0.316,0.229,0.607,0.411,0.87,0.543c0.009-0.011,0.017-0.023,0.025-0.034
		c0.175-0.244,0.371-0.53,0.585-0.856l0.699-1.05c0.168-0.253,0.323-0.483,0.464-0.69c-0.017-0.037-0.037-0.078-0.058-0.123
		c-0.079-0.165-0.295-0.533-0.87-1.347c-0.466-0.658-1.162-1.481-2.07-2.444c-0.177-0.189-0.214-0.471-0.089-0.699
		c0.124-0.227,0.376-0.349,0.635-0.302c0.451,0.083,0.896,0.249,1.323,0.492c0.397,0.226,0.873,0.55,1.453,0.989
		c0.447,0.339,0.955,0.784,1.515,1.327l1.762-2.395c-0.49-0.621-0.88-1.124-1.168-1.511c-0.349-0.466-0.576-0.776-0.684-0.933
		l-0.162-0.235c-0.098-0.149-0.126-0.333-0.075-0.504c0.051-0.171,0.175-0.311,0.339-0.381c0.008-0.003,0.049-0.023,0.113-0.094
		c0.163-0.177,0.34-0.307,0.526-0.387c0.188-0.079,0.4-0.059,0.568,0.052c0.25,0.166,0.527,0.418,0.85,0.77
		c0.282,0.311,0.579,0.63,0.89,0.961c0.3,0.321,0.601,0.611,0.901,0.874C492.902,251.435,493.023,251.529,493.123,251.597"/>
	<path clip-path="url(#SVGID_2_)" fill="#12100B" d="M492.659,279.533c0.228,0.471,0.512,0.938,0.844,1.394
		c1.637-0.317,3.093-0.637,4.333-0.951c1.35-0.344,2.847-0.808,4.449-1.379c1.47-0.521,2.896-1.141,4.248-1.846
		c-0.025-0.136-0.061-0.312-0.111-0.54c-0.102-0.454-0.238-0.944-0.403-1.454c-0.169-0.516-0.354-1.01-0.549-1.467
		c-0.111-0.261-0.204-0.448-0.277-0.582c-1.165,0.224-2.104,0.451-2.796,0.676l-1.156,0.378c-0.252,0.084-0.532-0.012-0.684-0.234
		c-0.149-0.222-0.135-0.516,0.036-0.721c0.892-1.069,1.575-1.899,2.051-2.491c0.48-0.598,0.829-1.03,1.05-1.297
		c0.104-0.13,0.192-0.239,0.261-0.326c-0.09-0.61-0.23-1.229-0.419-1.844c-0.18-0.581-0.439-1.161-0.773-1.728
		c-0.174,0.02-0.461,0.059-0.933,0.135c-0.891,0.146-2.038,0.38-3.408,0.695c-1.395,0.322-2.977,0.739-4.7,1.24
		c-1.582,0.46-3.165,0.996-4.709,1.596c0.03,0.209,0.073,0.433,0.13,0.667c0.102,0.412,0.24,0.853,0.41,1.308
		c0.172,0.456,0.379,0.909,0.612,1.346c0.175,0.329,0.359,0.644,0.552,0.941c0.242-0.032,0.495-0.066,0.761-0.105
		c0.399-0.058,0.81-0.127,1.229-0.203c0.42-0.077,0.835-0.157,1.242-0.241c0.4-0.084,0.776-0.17,1.129-0.261
		c0.274-0.071,0.562,0.061,0.688,0.317c0.125,0.255,0.054,0.563-0.171,0.738c-0.205,0.16-0.507,0.423-0.904,0.787
		c-0.417,0.383-0.856,0.772-1.32,1.17c-0.462,0.395-0.891,0.758-1.287,1.084c-0.207,0.17-0.373,0.295-0.508,0.389
		c0.119,0.435,0.246,0.835,0.381,1.194C492.133,278.395,492.37,278.938,492.659,279.533"/>
	<path clip-path="url(#SVGID_2_)" fill="#12100B" d="M501.634,315.072c0.335-0.358,0.604-0.669,0.812-0.927
		c0.115-0.144,0.288-0.225,0.469-0.225c0.035,0,0.07,0.003,0.106,0.009c0.216,0.039,0.395,0.194,0.463,0.403
		c0.3,0.906,0.558,1.614,0.766,2.104c0.217,0.513,0.329,0.743,0.386,0.846c0.575-0.004,1.065-0.068,1.461-0.193
		c0.621-0.196,0.846-0.335,0.913-0.386l0.092-0.068c0.028-0.021,0.056-0.042,0.08-0.061c0.504-2.214,0.605-3.981,0.302-5.258
		c-0.3-1.254-0.815-2.132-1.534-2.605c-0.731-0.485-1.606-0.643-2.675-0.477c-1.121,0.172-2.258,0.627-3.377,1.353
		c-0.174,0.111-0.394,0.128-0.581,0.04c-0.188-0.09-0.316-0.269-0.341-0.474c-0.025-0.215-0.076-0.459-0.154-0.733
		c-0.088-0.317-0.174-0.646-0.257-0.983c-0.08-0.325-0.164-0.641-0.248-0.945c-0.048-0.174-0.092-0.334-0.131-0.481
		c-0.658-0.185-1.312-0.282-1.947-0.292c-0.648-0.01-1.32,0.046-2.009,0.168c-0.567,1.827-0.812,3.434-0.727,4.782
		c0.09,1.419,0.383,2.598,0.87,3.508c0.481,0.897,1.071,1.584,1.753,2.04c0.679,0.454,1.322,0.707,1.911,0.752
		c0.422,0.034,0.824-0.032,1.233-0.201c0.449-0.186,0.876-0.429,1.268-0.721C500.939,315.748,501.309,315.421,501.634,315.072"/>
	<path clip-path="url(#SVGID_2_)" fill="#DF2A1B" d="M356.245,243.618c0.111-0.044,0.213-0.122,0.311-0.117
		c0.293,0.016,0.586,0.054,0.876,0.103c1.782,0.306,3.563,0.618,5.345,0.928c0.109,0.019,0.218,0.037,0.326,0.06
		c0.665,0.145,0.842,0.342,0.748,0.976c-0.156,1.058-0.358,2.11-0.532,3.166c-0.081,0.487-0.355,0.789-0.814,0.953
		c-0.973,0.348-1.941,0.709-2.913,1.058c-0.138,0.05-0.286,0.08-0.431,0.091c-0.279,0.021-0.51-0.061-0.619-0.352
		c-0.039-0.104-0.089-0.203-0.128-0.306c-0.705-1.904-1.409-3.808-2.11-5.712c-0.063-0.172-0.115-0.352-0.138-0.533
		C356.154,243.836,356.214,243.729,356.245,243.618"/>
	<path clip-path="url(#SVGID_2_)" fill="#DF2A1B" d="M492.623,342.86c-0.104,0.059-0.195,0.148-0.293,0.155
		c-0.293,0.022-0.588,0.023-0.882,0.01c-1.807-0.075-3.613-0.156-5.42-0.236c-0.11-0.006-0.221-0.01-0.331-0.019
		c-0.679-0.058-0.879-0.23-0.867-0.872c0.02-1.069,0.086-2.139,0.124-3.208c0.018-0.494,0.251-0.828,0.686-1.05
		c0.92-0.469,1.834-0.951,2.754-1.422c0.13-0.066,0.273-0.115,0.416-0.145c0.273-0.057,0.514-0.005,0.658,0.27
		c0.051,0.099,0.115,0.191,0.166,0.288c0.942,1.798,1.885,3.596,2.822,5.396c0.085,0.162,0.159,0.334,0.205,0.512
		C492.685,342.633,492.639,342.747,492.623,342.86"/>
	<path clip-path="url(#SVGID_2_)" fill="#DF2A1B" d="M352.952,347.374c-0.016-0.119-0.066-0.235-0.037-0.33
		c0.088-0.279,0.195-0.555,0.314-0.822c0.735-1.654,1.474-3.304,2.213-4.954c0.045-0.102,0.089-0.203,0.138-0.303
		c0.304-0.608,0.539-0.732,1.13-0.486c0.987,0.413,1.957,0.867,2.938,1.295c0.452,0.198,0.678,0.538,0.724,1.022
		c0.099,1.028,0.211,2.057,0.31,3.084c0.015,0.146,0.007,0.297-0.018,0.439c-0.047,0.276-0.184,0.479-0.493,0.514
		c-0.11,0.013-0.218,0.037-0.328,0.049c-2.018,0.217-4.037,0.432-6.055,0.643c-0.182,0.02-0.37,0.025-0.55,0.003
		C353.14,347.517,353.052,347.432,352.952,347.374"/>
	<path clip-path="url(#SVGID_2_)" fill="#12100B" d="M386.87,370.293c0.471-0.498,0.825-1.07,1.051-1.701
		c0.229-0.638,0.342-1.302,0.335-1.972c-0.007-0.653-0.125-1.227-0.349-1.702c-0.194-0.408-0.609-0.892-1.235-1.441
		c-0.667-0.585-1.455-1.179-2.341-1.764c-0.893-0.588-1.851-1.142-2.845-1.646c-0.869-0.441-1.69-0.804-2.446-1.078
		c-0.622,0.571-1.244,1.297-1.85,2.157c-0.708,1.009-1.402,2.11-2.06,3.279c-0.661,1.173-1.292,2.389-1.877,3.611
		c-0.517,1.082-0.989,2.108-1.407,3.056c0.549,0.486,1.175,0.948,1.865,1.374c0.687,0.424,1.412,0.76,2.16,1
		c0.209-0.285,0.406-0.542,0.59-0.77l0.694-0.876c0.197-0.255,0.381-0.525,0.541-0.798c0.176-0.303,0.345-0.636,0.507-0.997
		c0.07-0.158,0.207-0.279,0.373-0.329c0.165-0.051,0.346-0.027,0.493,0.063c1.31,0.818,2.49,1.339,3.507,1.547
		c0.994,0.204,1.854,0.205,2.562,0.005C385.833,371.116,386.416,370.773,386.87,370.293 M383.455,366.764
		c-0.353,0.516-0.86,0.897-1.509,1.141c-0.367,0.137-0.747,0.206-1.134,0.206c-0.296,0-0.597-0.04-0.901-0.12
		c-0.181-0.048-0.329-0.177-0.4-0.351c-0.072-0.173-0.06-0.367,0.034-0.529l2.485-4.311c0.099-0.171,0.275-0.282,0.472-0.298
		c0.195-0.017,0.39,0.067,0.514,0.22c0.578,0.713,0.889,1.44,0.924,2.164C383.975,365.611,383.812,366.243,383.455,366.764"/>
	<path clip-path="url(#SVGID_2_)" fill="#12100B" d="M400.399,368.946c-0.393,0.901-0.759,1.813-1.089,2.719
		c-0.366,1.005-0.692,2.033-0.97,3.059c-0.281,1.043-0.521,2.134-0.713,3.242c-0.184,1.059-0.326,2.21-0.42,3.423
		c0.514,0.759,1.139,1.351,1.861,1.761c0.799,0.455,1.655,0.776,2.546,0.953c0.9,0.18,1.819,0.242,2.732,0.191
		c0.762-0.047,1.484-0.134,2.152-0.26c0-0.02,0-0.039,0.001-0.061c0.004-0.316,0.002-0.671-0.01-1.069
		c-0.01-0.403-0.029-0.826-0.053-1.268c-0.016-0.28-0.036-0.536-0.059-0.767c-1.152-0.47-2.401-0.791-3.72-0.956
		c-0.179-0.024-0.339-0.125-0.435-0.279c-0.094-0.153-0.116-0.341-0.057-0.512c0.23-0.669,0.471-1.301,0.717-1.876
		c0.234-0.547,0.453-1.152,0.652-1.802c0.196-0.639,0.373-1.434,0.524-2.364c0.136-0.848,0.227-1.929,0.271-3.218
		c-0.595-0.365-1.232-0.621-1.898-0.76C401.755,368.964,401.077,368.91,400.399,368.946"/>
	<path clip-path="url(#SVGID_2_)" fill="#12100B" d="M424.373,371.847c-0.449,0.084-0.86,0.179-1.228,0.285
		c-0.785,2.121-1.455,4.328-1.993,6.566c-0.524,2.182-0.922,4.633-1.183,7.294c0.741,0.16,1.536,0.269,2.369,0.32
		c0.849,0.053,1.683,0.011,2.49-0.121c0.053-0.897,0.191-1.923,0.411-3.059c0.054-0.27,0.282-0.47,0.557-0.484l2.571-0.144
		c0.273-0.024,0.531,0.162,0.609,0.431c0.267,0.912,0.496,1.634,0.68,2.148c0.18,0.5,0.28,0.727,0.328,0.821
		c0.378-0.044,0.789-0.113,1.228-0.21c0.592-0.13,1.167-0.283,1.71-0.457c0.523-0.167,0.995-0.35,1.4-0.544
		c0.195-0.092,0.344-0.171,0.458-0.236c-0.633-2.007-1.24-3.775-1.806-5.266c-0.607-1.593-1.161-2.945-1.646-4.016
		c-0.488-1.078-0.913-1.95-1.263-2.593c-0.264-0.485-0.493-0.875-0.682-1.157c-0.414-0.02-0.874-0.021-1.368-0.006
		c-0.604,0.021-1.221,0.069-1.835,0.146C425.562,371.645,424.959,371.736,424.373,371.847 M427.136,374.332
		c0.01,0.136,0.057,0.388,0.224,0.821c0.154,0.404,0.32,0.823,0.501,1.258l0.524,1.273c0.185,0.446,0.298,0.8,0.347,1.08
		c0.03,0.171-0.016,0.345-0.124,0.479c-0.108,0.135-0.27,0.216-0.441,0.225l-2.553,0.072c-0.012,0.001-0.023,0.001-0.035,0.001
		c-0.175,0-0.347-0.075-0.461-0.208c-0.122-0.143-0.178-0.332-0.139-0.516l0.971-4.566c0.063-0.292,0.333-0.489,0.629-0.474
		C426.876,373.798,427.114,374.034,427.136,374.332"/>
	<path clip-path="url(#SVGID_2_)" fill="#12100B" d="M448.367,373.761c0.158,0.625,0.359,1.325,0.602,2.102
		c0.232,0.75,0.539,1.598,0.912,2.521c0.32,0.794,0.722,1.657,1.194,2.572c0.782-0.117,1.545-0.32,2.272-0.604
		c0.74-0.289,1.479-0.676,2.201-1.15c-0.292-1.004-0.574-1.914-0.841-2.709c-0.309-0.913-0.677-1.92-1.097-2.994
		c-0.427-1.091-0.916-2.155-1.457-3.163c-0.083-0.156-0.094-0.341-0.028-0.505c0.064-0.164,0.199-0.291,0.366-0.347
		c0.766-0.259,1.55-0.685,2.333-1.269c-0.116-0.745-0.29-1.388-0.517-1.915c-0.332-0.772-0.533-1.117-0.644-1.269h-0.001
		c-0.033-0.047-0.064-0.09-0.093-0.128c-0.611,0.146-1.374,0.374-2.274,0.675c-1.104,0.371-2.234,0.781-3.358,1.22
		c-1.13,0.441-2.178,0.888-3.116,1.328c-0.669,0.314-1.199,0.585-1.586,0.812l1.17,3.368c0.326-0.048,0.661-0.113,1.002-0.199
		c0.51-0.129,0.907-0.241,1.192-0.34c0.272-0.096,0.434-0.151,0.479-0.17c0.071-0.027,0.147-0.043,0.223-0.043
		c0.09,0,0.18,0.021,0.262,0.061c0.151,0.072,0.267,0.206,0.315,0.367C448.042,372.524,448.204,373.117,448.367,373.761"/>
	<path clip-path="url(#SVGID_2_)" fill="#12100B" d="M470.655,369.539c0.516,0.137,1.032,0.146,1.578,0.025
		c0.628-0.136,1.264-0.38,1.889-0.726c0.641-0.357,1.269-0.791,1.865-1.293c0.604-0.507,1.156-1.037,1.642-1.579
		c0.48-0.539,0.893-1.075,1.225-1.594c0.212-0.33,0.377-0.63,0.494-0.896c-0.013-0.008-0.024-0.018-0.037-0.025
		c-0.252-0.161-0.55-0.341-0.887-0.539l-1.073-0.63c-0.271-0.161-0.512-0.305-0.727-0.433c-0.034,0.018-0.072,0.04-0.116,0.062
		c-0.234,0.128-0.672,0.445-1.302,0.943c-0.629,0.5-1.412,1.241-2.326,2.201c-0.18,0.188-0.461,0.238-0.692,0.128
		c-0.234-0.112-0.371-0.362-0.337-0.619c0.059-0.455,0.2-0.908,0.418-1.346c0.204-0.408,0.51-0.913,0.909-1.506
		c0.315-0.471,0.725-0.992,1.24-1.587l-2.486-1.627c-0.594,0.523-1.075,0.94-1.445,1.25c-0.445,0.373-0.743,0.617-0.893,0.732
		l-0.157,0.121c-0.142,0.108-0.357,0.175-0.532,0.133c-0.175-0.04-0.354-0.131-0.435-0.291c-0.007-0.013-0.03-0.052-0.101-0.109
		c-0.189-0.156-0.329-0.326-0.418-0.51c-0.088-0.182-0.079-0.395,0.024-0.568c0.156-0.262,0.392-0.552,0.721-0.888
		c0.295-0.299,0.598-0.612,0.912-0.94c0.301-0.317,0.574-0.634,0.822-0.949c0.117-0.151,0.204-0.277,0.267-0.381
		c-0.467-0.507-0.999-0.979-1.587-1.407c-0.654,0.328-1.256,0.679-1.792,1.042c-0.632,0.431-1.354,0.979-2.142,1.63
		c-0.703,0.577-1.402,1.275-2.083,2.074c0.775,1.698,1.763,3.363,2.938,4.956C467.266,366.072,468.821,367.803,470.655,369.539"/>
	<path clip-path="url(#SVGID_2_)" fill="#12100B" d="M510.455,295.712c-2.963-0.635-6.763-1.917-8.415-2.8l-0.353-1.93
		c2.092,0.647,5.755,1.347,8.276,1.588L510.455,295.712z"/>
	<path clip-path="url(#SVGID_2_)" fill="#12100B" d="M404.235,275.889c1.041,0.056,2.083,0.084,3.12,0.179
		c0.799,0.073,1.289-0.285,1.628-0.954c0.818-1.61,1.641-3.217,2.461-4.826c0.029-0.057,0.056-0.115,0.084-0.172
		c0.536-1.065,0.89-1.169,1.87-0.539c1.984,1.276,3.977,2.539,5.943,3.841c0.683,0.453,1.296,0.493,2.014,0.095
		c1.709-0.948,3.461-1.819,5.156-2.79c0.834-0.477,1.332-0.205,1.76,0.455c1.227,1.889,2.469,3.769,3.677,5.67
		c0.476,0.747,1.063,1.136,1.99,1.092c2.081-0.098,4.166-0.123,6.248-0.189c0.91-0.028,1.306,0.297,1.339,1.196
		c0.079,2.167,0.166,4.334,0.196,6.502c0.011,0.762,0.338,1.249,0.966,1.58c1.766,0.932,3.537,1.855,5.307,2.781
		c0.15,0.079,0.309,0.147,0.447,0.243c0.539,0.373,0.644,0.803,0.301,1.364c-1.221,1.994-2.428,3.995-3.689,5.963
		c-0.47,0.732-0.508,1.369-0.088,2.131c0.953,1.729,1.85,3.492,2.768,5.241c0.422,0.805,0.321,1.211-0.461,1.692
		c-1.881,1.16-3.77,2.309-5.655,3.46c-0.145,0.089-0.296,0.169-0.434,0.27c-0.524,0.376-0.86,0.836-0.865,1.534
		c-0.018,2.17-0.079,4.338-0.114,6.506c-0.016,0.969-0.357,1.334-1.348,1.346c-2.105,0.028-4.211,0.072-6.314,0.046
		c-0.837-0.01-1.367,0.335-1.753,1.022c-0.968,1.722-1.939,3.442-2.91,5.164c-0.083,0.147-0.155,0.305-0.252,0.442
		c-0.392,0.57-0.831,0.67-1.413,0.297c-1.912-1.228-3.819-2.467-5.729-3.701c-0.106-0.068-0.214-0.138-0.318-0.211
		c-0.537-0.382-1.08-0.403-1.677-0.107c-1.806,0.897-3.642,1.74-5.432,2.67c-0.971,0.506-1.431,0.255-1.913-0.6
		c-1.074-1.905-2.163-3.805-3.22-5.721c-0.431-0.781-1.015-1.189-1.936-1.189c-2.125,0-4.251-0.056-6.377-0.078
		c-0.722-0.008-1.135-0.365-1.116-1.07c0.057-2.146,0.095-4.295,0.224-6.437c0.056-0.917-0.254-1.504-1.041-1.912
		c-1.658-0.863-3.308-1.742-4.962-2.614c-0.169-0.089-0.349-0.162-0.506-0.27c-0.51-0.35-0.607-0.78-0.279-1.311
		c1.176-1.896,2.362-3.786,3.543-5.679c0.124-0.198,0.236-0.405,0.372-0.594c0.423-0.586,0.404-1.165,0.055-1.787
		c-0.998-1.779-1.943-3.588-2.974-5.346c-0.467-0.797-0.241-1.288,0.42-1.71c1.756-1.121,3.522-2.224,5.284-3.333
		c0.216-0.137,0.448-0.25,0.649-0.404c0.476-0.365,0.782-0.809,0.745-1.46c-0.125-2.186-0.229-4.373-0.328-6.561
		c-0.011-0.243-0.005-0.523,0.102-0.73c0.18-0.352,0.487-0.555,0.929-0.549c1.169,0.019,2.338,0.007,3.507,0.007
		C404.235,275.853,404.235,275.87,404.235,275.889 M416.486,311.225h0.066c0,0.468-0.014,0.936,0.003,1.403
		c0.059,1.636,0.136,3.271,0.193,4.906c0.022,0.635-0.416,1.02-1.049,0.955c-0.931-0.093-1.862-0.189-2.793-0.282
		c-0.549-0.054-1.1-0.125-1.652-0.142c-0.599-0.016-0.889,0.46-0.608,0.979c0.465,0.858,0.934,1.718,1.426,2.561
		c0.412,0.707,0.849,0.817,1.599,0.454c1.55-0.748,3.111-1.473,4.646-2.252c0.711-0.36,1.309-0.301,1.961,0.14
		c1.619,1.098,3.264,2.155,4.903,3.223c0.668,0.434,1.118,0.332,1.533-0.357c0.45-0.747,0.878-1.505,1.305-2.265
		c0.261-0.465,0.04-0.948-0.479-1.059c-0.145-0.031-0.297-0.02-0.445-0.03c-1.379-0.091-2.759-0.175-4.137-0.273
		c-0.708-0.049-1.099-0.535-1.033-1.235c0.032-0.358,0.037-0.722,0.072-1.082c0.256-2.709,0.51-5.418,0.782-8.125
		c0.104-1.036,0.245-2.067,0.392-3.1c0.113-0.811,0.596-1.042,1.288-0.638c3.506,2.046,7.06,4.005,10.7,5.802
		c0.818,0.404,0.933,0.848,0.46,1.633c-0.757,1.256-1.517,2.511-2.265,3.773c-0.269,0.451-0.018,0.948,0.505,1.031
		c0.103,0.018,0.212,0.009,0.318,0.007c0.808-0.011,1.616-0.014,2.424-0.034c0.832-0.021,1.188-0.393,1.21-1.212
		c0.044-1.766,0.121-3.53,0.131-5.294c0.006-0.938,0.414-1.549,1.204-2.008c1.58-0.918,3.137-1.876,4.702-2.817
		c0.146-0.088,0.297-0.17,0.43-0.275c0.508-0.396,0.602-0.811,0.306-1.388c-0.368-0.719-0.748-1.433-1.123-2.147
		c-0.039-0.074-0.077-0.151-0.128-0.22c-0.305-0.411-0.747-0.428-1.065-0.037c-0.107,0.131-0.189,0.282-0.28,0.426
		c-0.762,1.203-1.519,2.409-2.284,3.609c-0.52,0.815-0.94,0.916-1.724,0.369c-3.188-2.228-6.37-4.466-9.553-6.703
		c-0.139-0.097-0.28-0.197-0.4-0.316c-0.34-0.34-0.328-0.732,0.036-1.052c0.126-0.111,0.281-0.189,0.427-0.278
		c1.016-0.62,2.046-1.216,3.046-1.861c2.536-1.637,5.06-3.292,7.585-4.945c0.71-0.465,1.123-0.377,1.558,0.36
		c0.108,0.183,0.209,0.37,0.31,0.557c0.514,0.954,1.065,1.89,1.528,2.868c0.354,0.748,1.035,0.791,1.423,0.072
		c0.442-0.821,0.975-1.595,1.46-2.393c0.389-0.64,0.27-1.102-0.391-1.48c-0.423-0.244-0.862-0.459-1.294-0.689
		c-1.105-0.591-2.206-1.191-3.317-1.771c-0.725-0.378-1.148-0.907-1.073-1.775c0.042-0.485,0.017-0.977,0.007-1.467
		c-0.026-1.36-0.054-2.721-0.095-4.081c-0.019-0.607-0.422-1.034-0.976-1.031c-0.936,0.005-1.872,0.022-2.807,0.061
		c-0.735,0.03-0.972,0.524-0.584,1.166c0.737,1.218,1.479,2.434,2.21,3.656c0.407,0.681,0.294,1.155-0.408,1.52
		c-3.754,1.949-7.578,3.748-11.482,5.374c-0.467,0.195-0.957-0.093-1.033-0.588c-0.02-0.125-0.006-0.255-0.013-0.382
		c-0.112-2.229-0.192-4.461-0.35-6.686c-0.132-1.865-0.356-3.724-0.535-5.587c-0.084-0.878,0.243-1.225,1.112-1.177
		c1.146,0.062,2.292,0.139,3.438,0.205c0.318,0.018,0.641,0.053,0.955,0.02c0.516-0.055,0.745-0.536,0.473-0.973
		c-0.53-0.847-1.072-1.686-1.618-2.523c-0.342-0.525-0.839-0.851-1.621-0.405c-1.438,0.822-2.932,1.547-4.38,2.353
		c-0.737,0.41-1.372,0.381-2.076-0.09c-1.712-1.148-3.455-2.251-5.188-3.367c-0.639-0.411-1.097-0.304-1.465,0.364
		c-0.409,0.744-0.786,1.506-1.188,2.255c-0.129,0.24-0.085,0.443,0.051,0.656c0.178,0.279,0.439,0.361,0.756,0.39
		c1.439,0.137,2.877,0.286,4.314,0.441c0.906,0.097,1.211,0.453,1.217,1.36c0.022,3.468-0.15,6.929-0.43,10.385
		c-0.055,0.678-0.115,1.357-0.214,2.029c-0.091,0.612-0.592,0.834-1.118,0.514c-3.685-2.243-7.38-4.47-11.182-6.511
		c-0.727-0.391-0.836-0.851-0.438-1.569c0.671-1.208,1.344-2.414,2.004-3.627c0.306-0.561,0.036-1.049-0.607-1.13
		c-0.084-0.01-0.17-0.011-0.255-0.014c-0.786-0.033-1.572-0.069-2.358-0.098c-0.874-0.032-1.25,0.351-1.217,1.212
		c0.071,1.784,0.114,3.57,0.213,5.354c0.047,0.856-0.324,1.41-1.029,1.816c-0.995,0.573-1.983,1.156-2.969,1.743
		c-0.639,0.38-1.278,0.762-1.903,1.166c-0.677,0.439-0.781,0.873-0.407,1.557c0.376,0.69,0.751,1.381,1.135,2.067
		c0.424,0.755,0.909,0.772,1.373,0.056c0.07-0.107,0.137-0.216,0.203-0.324c0.678-1.106,1.352-2.213,2.032-3.317
		c0.543-0.881,0.927-0.977,1.743-0.387c1.98,1.434,3.961,2.867,5.918,4.333c1.362,1.019,2.69,2.082,4.02,3.142
		c0.568,0.453,0.522,0.941-0.087,1.321c-0.108,0.067-0.227,0.117-0.337,0.18c-2.24,1.263-4.488,2.511-6.714,3.796
		c-1.325,0.765-2.616,1.588-3.923,2.384c-0.605,0.369-1.067,0.255-1.433-0.356c-0.065-0.11-0.115-0.229-0.172-0.342
		c-0.531-1.041-1.063-2.082-1.595-3.122c-0.067-0.133-0.124-0.273-0.21-0.394c-0.298-0.421-0.733-0.438-1.067-0.047
		c-0.069,0.08-0.121,0.173-0.178,0.263c-0.501,0.79-1.004,1.578-1.501,2.37c-0.418,0.668-0.302,1.112,0.392,1.521
		c0.109,0.064,0.226,0.116,0.338,0.18c1.389,0.781,2.779,1.56,4.166,2.345c0.664,0.376,1.056,0.905,0.946,1.717
		c-0.043,0.315-0.048,0.637-0.062,0.955c-0.067,1.551-0.138,3.103-0.191,4.653c-0.021,0.613,0.354,1.06,0.919,1.082
		c0.978,0.04,1.956,0.047,2.934,0.054c0.139,0.001,0.298-0.05,0.413-0.128c0.322-0.218,0.379-0.51,0.184-0.88
		c-0.693-1.315-1.396-2.627-2.087-3.943c-0.295-0.562-0.164-1.012,0.375-1.349c0.071-0.044,0.152-0.075,0.229-0.11
		c3.788-1.73,7.665-3.247,11.561-4.717c0.512-0.192,0.979,0.121,1.028,0.672c0.017,0.19,0.005,0.382,0.005,0.573
		C416.486,307.312,416.486,309.269,416.486,311.225 M441.454,298.554c-0.069-0.248-0.095-0.467-0.188-0.65
		c-0.528-1.041-1.056-2.083-1.619-3.105c-0.352-0.636-0.826-0.725-1.424-0.337c-1.853,1.202-3.704,2.406-5.556,3.609
		c-0.751,0.487-0.778,0.956-0.052,1.464c1.637,1.144,3.282,2.272,4.932,3.397c0.617,0.422,1.084,0.334,1.504-0.305
		c0.722-1.102,1.424-2.216,2.116-3.335C441.307,299.065,441.365,298.789,441.454,298.554 M415.575,282.835
		c0.013-0.001,0.027-0.001,0.04-0.001c0-0.849-0.001-1.699,0-2.548c0.002-0.701-0.343-1.116-1.034-1.191
		c-1.14-0.124-2.285-0.206-3.421-0.351c-0.819-0.104-1.332,0.252-1.705,0.933c-0.49,0.893-0.996,1.776-1.492,2.667
		c-0.356,0.643-0.244,1.106,0.405,1.489c1.974,1.164,3.961,2.308,5.933,3.476c0.324,0.192,0.594,0.134,0.792-0.107
		c0.148-0.178,0.241-0.446,0.259-0.681C415.444,285.293,415.504,284.064,415.575,282.835 M427.432,317.081v0.072
		c0.509,0,1.021-0.034,1.526,0.009c0.682,0.058,1.159-0.258,1.493-0.783c0.672-1.057,1.301-2.141,1.953-3.207
		c0.193-0.317,0.173-0.623-0.06-0.883c-0.179-0.197-0.404-0.37-0.64-0.501c-1.021-0.565-2.056-1.104-3.08-1.662
		c-0.8-0.438-1.59-0.895-2.388-1.337c-0.464-0.257-0.94-0.064-1.087,0.44c-0.047,0.161-0.064,0.334-0.081,0.502
		c-0.193,2.007-0.388,4.014-0.574,6.022c-0.067,0.734,0.289,1.163,1.029,1.224C426.158,317.029,426.797,317.049,427.432,317.081
		 M399.325,296.743c0.076,0.265,0.11,0.501,0.21,0.706c0.507,1.029,1.019,2.056,1.552,3.07c0.369,0.704,0.831,0.81,1.507,0.409
		c1.791-1.064,3.585-2.122,5.377-3.182c0.128-0.075,0.264-0.142,0.378-0.235c0.402-0.33,0.418-0.729,0.051-1.093
		c-0.075-0.074-0.163-0.137-0.248-0.2c-1.656-1.228-3.309-2.46-4.972-3.68c-0.646-0.474-1.103-0.393-1.542,0.282
		c-0.685,1.05-1.351,2.113-2.008,3.181C399.49,296.229,399.422,296.5,399.325,296.743 M428.751,280.287v-0.032
		c-0.572-0.032-1.146-0.073-1.719-0.094c-0.804-0.032-1.154,0.343-1.093,1.158c0.159,2.097,0.32,4.194,0.482,6.291
		c0.061,0.798,0.503,1.061,1.245,0.717c1.829-0.848,3.653-1.707,5.478-2.566c0.172-0.081,0.347-0.172,0.487-0.295
		c0.372-0.326,0.462-0.685,0.233-1.076c-0.656-1.117-1.312-2.234-2.012-3.324c-0.335-0.523-0.842-0.818-1.509-0.784
		C429.814,280.309,429.282,280.287,428.751,280.287 M414.233,311.743h-0.144c0-1.084,0.006-2.167-0.002-3.251
		c-0.005-0.812-0.447-1.126-1.18-0.834c-1.852,0.741-3.701,1.489-5.55,2.237c-0.158,0.064-0.319,0.125-0.46,0.216
		c-0.486,0.313-0.611,0.743-0.35,1.252c0.554,1.076,1.106,2.153,1.687,3.215c0.273,0.498,0.67,0.877,1.284,0.935
		c1.227,0.111,2.453,0.231,3.68,0.34c0.616,0.054,1.039-0.363,1.036-0.987C414.23,313.824,414.233,312.784,414.233,311.743"/>
	<path clip-path="url(#SVGID_2_)" fill="#F4C000" d="M370.267,303.891c0.113-0.09,0.217-0.193,0.34-0.268
		c1.787-1.067,3.586-2.115,5.362-3.203c0.601-0.368,1.146-0.428,1.794-0.117c3.408,1.638,6.828,3.25,10.244,4.872
		c0.114,0.055,0.231,0.112,0.332,0.188c0.501,0.368,0.571,0.755,0.236,1.319c-0.595,1.006-1.212,1.999-1.79,3.015
		c-1.629,2.86-3.253,5.726-4.858,8.601c-0.403,0.723-0.93,1.174-1.784,1.245c-1.946,0.162-3.89,0.357-5.836,0.535
		c-0.146,0.013-0.295-0.01-0.443-0.017c0.212-0.316,0.572-0.538,0.371-1.051c-0.551-1.403-1.058-2.823-1.552-4.247
		c-0.349-1.002-0.773-2-0.941-3.036c-0.347-2.133-0.575-4.287-0.784-6.439C370.9,304.69,370.76,304.228,370.267,303.891"/>
	<path clip-path="url(#SVGID_2_)" fill="#F4C000" d="M399.197,342.213c-0.018-0.146-0.046-0.293-0.051-0.438
		c-0.057-1.955-0.081-3.911-0.18-5.863c-0.043-0.837,0.292-1.383,0.97-1.78c1.503-0.881,2.992-1.787,4.517-2.628
		c1.898-1.046,3.836-2.019,5.736-3.06c0.781-0.426,1.242-0.354,1.771,0.542c1.266,2.139,2.515,4.289,3.765,6.437
		c0.962,1.653,1.9,3.319,2.88,4.962c0.406,0.682,0.4,1.288-0.012,1.966c-0.928,1.523-1.813,3.074-2.72,4.61
		c-0.073,0.123-0.181,0.227-0.272,0.337c-0.268-0.317-0.482-0.672-0.949-0.784c-1.155-0.278-2.301-0.594-3.446-0.91
		c-1.96-0.544-3.956-0.952-5.838-1.779c-1.631-0.715-3.327-1.283-4.988-1.931c-0.381-0.149-0.696-0.146-0.977,0.175
		C399.349,342.129,399.266,342.165,399.197,342.213"/>
	<path clip-path="url(#SVGID_2_)" fill="#F4C000" d="M439.763,253.185c0.019,0.125,0.051,0.249,0.055,0.375
		c0.052,1.997,0.075,3.996,0.162,5.992c0.032,0.756-0.254,1.286-0.855,1.656c-3.406,2.092-6.817,4.175-10.234,6.249
		c-0.624,0.379-1.069,0.264-1.521-0.384c-0.485-0.698-0.947-1.414-1.391-2.139c-1.821-2.973-3.607-5.969-5.462-8.921
		c-0.589-0.939-0.589-1.717,0.034-2.634c1.002-1.477,1.906-3.02,2.854-4.533c0.055-0.087,0.135-0.159,0.202-0.238
		c0.137,0.459,0.397,0.768,0.898,0.879c1.529,0.335,3.053,0.694,4.578,1.046c1.051,0.242,2.124,0.414,3.145,0.747
		c2.053,0.668,4.083,1.409,6.108,2.155C438.896,253.641,439.354,253.649,439.763,253.185"/>
	<path clip-path="url(#SVGID_2_)" fill="#F4C000" d="M414.396,247.708c0.273,0.526,0.545,1.054,0.82,1.579
		c0.739,1.412,1.456,2.836,2.228,4.229c0.369,0.665,0.376,1.237,0.002,1.911c-1.833,3.307-3.63,6.635-5.441,9.955
		c-0.071,0.131-0.135,0.267-0.225,0.384c-0.362,0.47-0.75,0.547-1.266,0.233c-1.76-1.073-3.501-2.177-5.277-3.223
		c-1.922-1.132-3.875-2.212-5.814-3.315c-0.203-0.115-0.42-0.212-0.607-0.349c-0.386-0.283-0.713-0.624-0.723-1.141
		c-0.041-2.188-0.073-4.377-0.107-6.565c0-0.041,0.021-0.082,0.032-0.123c0.404,0.426,0.825,0.422,1.374,0.215
		c1.904-0.716,3.831-1.374,5.754-2.037c0.439-0.15,0.896-0.285,1.355-0.334c2.211-0.233,4.424-0.455,6.64-0.634
		C413.736,248.445,414.159,248.261,414.396,247.708"/>
	<path clip-path="url(#SVGID_2_)" fill="#F4C000" d="M464.775,318.332c-0.145,0.022-0.289,0.062-0.435,0.066
		c-1.954,0.054-3.909,0.078-5.862,0.163c-0.809,0.036-1.348-0.293-1.722-0.958c-1.947-3.462-3.891-6.927-5.828-10.396
		c-0.322-0.578-0.23-0.969,0.283-1.394c0.114-0.093,0.241-0.172,0.369-0.249c3.709-2.202,7.423-4.396,11.123-6.611
		c0.703-0.421,1.327-0.415,2.023,0.009c1.633,0.995,3.29,1.951,4.936,2.925c0.071,0.042,0.129,0.104,0.193,0.159
		c-0.424,0.14-0.767,0.358-0.879,0.833c-0.349,1.468-0.691,2.935-1.056,4.397c-0.297,1.195-0.538,2.411-0.95,3.566
		c-0.736,2.06-1.563,4.089-2.395,6.112C464.355,317.496,464.361,317.923,464.775,318.332"/>
	<path clip-path="url(#SVGID_2_)" fill="#F4C000" d="M424.801,348.18c-0.305-0.506-0.617-1.008-0.911-1.52
		c-0.804-1.401-1.589-2.813-2.406-4.208c-0.374-0.637-0.35-1.217,0.012-1.857c1.83-3.237,3.639-6.488,5.455-9.735
		c0.125-0.224,0.239-0.452,0.379-0.665c0.377-0.573,0.812-0.666,1.41-0.324c2.711,1.554,5.419,3.113,8.137,4.656
		c0.942,0.533,1.906,1.032,2.867,1.535c0.719,0.377,1.108,0.913,1.12,1.768c0.025,1.913,0.111,3.827,0.169,5.739
		c0.006,0.168-0.017,0.337-0.026,0.506c-0.418-0.396-0.83-0.415-1.377-0.173c-1.341,0.589-2.725,1.076-4.081,1.632
		c-1.698,0.694-3.44,1.194-5.274,1.385c-1.434,0.149-2.855,0.409-4.289,0.558C425.442,347.532,425.069,347.733,424.801,348.18"/>
	<path clip-path="url(#SVGID_2_)" fill="#F4C000" d="M375.252,278.222c0.627-0.072,1.253-0.149,1.881-0.214
		c1.457-0.149,2.922-0.252,4.371-0.455c0.745-0.105,1.237,0.178,1.645,0.713c0.335,0.439,0.647,0.897,0.947,1.361
		c1.821,2.82,3.641,5.64,5.448,8.469c0.509,0.796,0.414,1.227-0.374,1.761c-3.693,2.504-7.393,4.999-11.09,7.496
		c-0.088,0.059-0.183,0.108-0.27,0.169c-0.543,0.378-1.096,0.399-1.677,0.082c-1.268-0.692-2.546-1.367-3.811-2.063
		c-0.479-0.264-0.937-0.566-1.404-0.851c0.485-0.286,0.737-0.702,0.843-1.265c0.249-1.312,0.543-2.616,0.832-3.92
		c0.303-1.365,0.471-2.758,0.934-4.09c0.669-1.924,1.276-3.87,1.935-5.798C375.642,279.092,375.651,278.638,375.252,278.222"/>
	<path clip-path="url(#SVGID_2_)" fill="#F4C000" d="M470.388,292.824c-0.23,0.147-0.454,0.305-0.69,0.439
		c-1.664,0.943-3.335,1.873-4.993,2.823c-0.571,0.328-1.104,0.341-1.684,0.02c-3.457-1.914-6.92-3.816-10.381-5.722
		c-0.093-0.051-0.191-0.094-0.279-0.152c-0.54-0.359-0.655-0.792-0.338-1.359c0.984-1.761,2.001-3.506,2.96-5.281
		c1.029-1.906,2.002-3.842,3.016-5.757c0.155-0.294,0.377-0.56,0.606-0.804c0.224-0.239,0.525-0.331,0.865-0.337
		c1.933-0.04,3.865-0.092,5.797-0.14c0.167-0.003,0.334-0.007,0.5-0.01c0.079,0.007,0.158,0.014,0.237,0.021
		c-0.25,0.341-0.49,0.632-0.263,1.139c0.694,1.55,1.346,3.12,1.966,4.7c0.378,0.965,0.777,1.943,0.976,2.953
		c0.404,2.057,0.715,4.136,0.983,6.217C469.74,292.146,469.964,292.513,470.388,292.824"/>
	<path clip-path="url(#SVGID_2_)" fill="#F4C000" d="M448.925,338.966c-0.268-0.121-0.539-0.233-0.802-0.366
		c-1.535-0.776-3.073-1.549-4.599-2.343c-0.314-0.163-0.599-0.395-0.865-0.633c-0.264-0.233-0.368-0.551-0.381-0.912
		c-0.089-2.397-0.192-4.797-0.283-7.195c-0.067-1.739-0.121-3.481-0.185-5.222c-0.032-0.882,0.332-1.287,1.218-1.338
		c2.946-0.171,5.894-0.342,8.84-0.513c1.188-0.069,2.376-0.125,3.562-0.216c0.676-0.053,1.165,0.244,1.501,0.773
		c1.115,1.758,2.203,3.532,3.299,5.303c0.029,0.048,0.017,0.12,0.024,0.182c-0.416-0.173-0.74-0.036-1.008,0.295
		c-0.094,0.116-0.196,0.224-0.286,0.342c-0.734,0.96-1.455,1.932-2.203,2.881c-0.905,1.148-1.707,2.38-2.796,3.378
		c-1.564,1.434-3.112,2.883-4.683,4.312C448.878,338.058,448.648,338.431,448.925,338.966"/>
	<path clip-path="url(#SVGID_2_)" fill="#F4C000" d="M378.814,327.586c0.065-0.176,0.112-0.36,0.197-0.525
		c0.886-1.719,1.783-3.431,2.666-5.15c0.365-0.711,0.882-1.115,1.718-1.223c3.937-0.512,7.873-1.022,11.833-1.33
		c0.211-0.018,0.424-0.026,0.636-0.026c0.563-0.001,0.953,0.344,1.023,0.911c0.028,0.232,0.031,0.466,0.037,0.699
		c0.066,2.762,0.121,5.522,0.199,8.284c0.036,1.253,0.113,2.504,0.178,3.755c0.036,0.701-0.348,1.153-0.884,1.515
		c-1.322,0.891-2.646,1.777-3.971,2.662c-0.456,0.305-0.916,0.605-1.374,0.907c0.119-0.532-0.109-0.87-0.548-1.165
		c-1.336-0.898-2.641-1.842-3.977-2.741c-1.077-0.723-2.077-1.527-2.975-2.47c-1.184-1.244-2.416-2.442-3.604-3.681
		C379.634,327.659,379.304,327.442,378.814,327.586"/>
	<path clip-path="url(#SVGID_2_)" fill="#F4C000" d="M460.566,268.699c-0.043,0.139-0.068,0.287-0.13,0.417
		c-0.802,1.687-1.611,3.372-2.413,5.059c-0.342,0.72-0.874,1.068-1.696,1.11c-3.498,0.181-6.994,0.406-10.491,0.611
		c-0.614,0.036-1.23,0.056-1.845,0.091c-0.582,0.032-1.031-0.296-1.112-0.888c-0.096-0.714-0.144-1.436-0.212-2.154
		c-0.204-2.155-0.415-4.309-0.609-6.465c-0.118-1.311-0.188-2.626-0.323-3.935c-0.081-0.779,0.238-1.3,0.859-1.706
		c1.438-0.943,2.869-1.897,4.309-2.841c0.316-0.208,0.647-0.394,0.973-0.59c-0.231,0.55,0.08,0.88,0.476,1.173
		c1.005,0.745,2.005,1.497,3.019,2.23c1.615,1.17,3.213,2.352,4.564,3.844c1.11,1.225,2.301,2.378,3.43,3.587
		C459.708,268.611,460.052,268.843,460.566,268.699"/>
	<path clip-path="url(#SVGID_2_)" fill="#F4C000" d="M390.075,256.658c0.16,0.045,0.33,0.069,0.477,0.14
		c1.65,0.787,3.293,1.589,4.945,2.372c0.788,0.373,1.16,0.946,1.219,1.842c0.154,2.332,0.384,4.659,0.595,6.986
		c0.162,1.778,0.348,3.554,0.511,5.331c0.048,0.527-0.412,1.015-0.968,1.054c-0.764,0.053-1.53,0.072-2.291,0.144
		c-2.009,0.188-4.018,0.384-6.025,0.602c-1.415,0.154-2.827,0.335-4.237,0.529c-0.745,0.102-1.212-0.284-1.604-0.824
		c-0.8-1.101-1.591-2.208-2.381-3.316c-0.406-0.569-0.802-1.145-1.203-1.718c0.565,0.137,0.902-0.128,1.204-0.588
		c1.024-1.561,2.07-3.108,3.13-4.645c0.457-0.661,0.92-1.333,1.47-1.914c1.532-1.618,3.101-3.202,4.682-4.772
		C389.961,257.521,390.177,257.168,390.075,256.658"/>
	<path clip-path="url(#SVGID_2_)" fill="#961914" d="M470.388,292.824c-0.424-0.312-0.647-0.678-0.722-1.25
		c-0.269-2.081-0.579-4.16-0.983-6.217c-0.198-1.01-0.598-1.988-0.976-2.953c-0.62-1.58-1.271-3.15-1.966-4.7
		c-0.228-0.507,0.013-0.798,0.263-1.139c0.253-0.02,0.506-0.06,0.76-0.058c4.631,0.031,9.262,0.069,13.893,0.1
		c0.767,0.005,1.217,0.412,1.478,1.086c0.807,2.08,1.47,4.206,1.978,6.38c0.19,0.816-0.004,1.25-0.771,1.675
		c-2.081,1.151-4.167,2.292-6.25,3.439c-1.953,1.074-3.904,2.152-5.859,3.224C470.957,292.562,470.669,292.688,470.388,292.824"/>
	<path clip-path="url(#SVGID_2_)" fill="#961914" d="M375.252,278.222c0.399,0.416,0.39,0.87,0.21,1.395
		c-0.659,1.928-1.266,3.874-1.935,5.798c-0.463,1.332-0.631,2.725-0.934,4.09c-0.289,1.304-0.583,2.608-0.832,3.92
		c-0.106,0.563-0.358,0.979-0.843,1.265c-0.21-0.099-0.429-0.183-0.629-0.3c-4.096-2.391-8.025-5.039-11.912-7.753
		c-0.655-0.458-0.945-1.013-0.725-1.854c0.506-1.931,0.937-3.881,1.416-5.818c0.234-0.949,0.615-1.215,1.606-1.109
		c3.682,0.395,7.373,0.584,11.076,0.483c0.956-0.026,1.911-0.086,2.867-0.125C374.828,278.205,375.041,278.219,375.252,278.222"/>
	<path clip-path="url(#SVGID_2_)" fill="#961914" d="M399.197,342.213c0.069-0.048,0.152-0.084,0.206-0.146
		c0.281-0.321,0.596-0.324,0.977-0.175c1.661,0.647,3.357,1.216,4.988,1.931c1.882,0.827,3.878,1.235,5.838,1.779
		c1.145,0.316,2.291,0.632,3.446,0.91c0.467,0.112,0.681,0.467,0.949,0.784c-0.123,0.246-0.229,0.501-0.37,0.735
		c-2.26,3.748-4.522,7.495-6.789,11.239c-0.141,0.231-0.31,0.46-0.506,0.646c-0.291,0.278-0.637,0.384-1.054,0.261
		c-2.22-0.653-4.446-1.286-6.664-1.947c-0.637-0.191-0.94-0.698-0.944-1.417c-0.021-4.252-0.043-8.503-0.065-12.754
		C399.206,343.443,399.201,342.828,399.197,342.213"/>
	<path clip-path="url(#SVGID_2_)" fill="#961914" d="M439.763,253.185c-0.409,0.464-0.867,0.456-1.426,0.25
		c-2.025-0.746-4.056-1.487-6.108-2.155c-1.021-0.333-2.094-0.505-3.145-0.747c-1.525-0.352-3.049-0.711-4.578-1.046
		c-0.501-0.111-0.762-0.42-0.898-0.879c0.537-0.84,1.055-1.693,1.615-2.517c2.222-3.266,4.455-6.524,6.688-9.782
		c0.565-0.825,0.925-0.975,1.886-0.738c1.916,0.471,3.828,0.962,5.741,1.447c0.123,0.031,0.245,0.067,0.365,0.109
		c0.582,0.202,0.898,0.647,0.845,1.255c-0.131,1.481-0.276,2.96-0.419,4.439c-0.313,3.237-0.502,6.48-0.519,9.732
		C439.809,252.764,439.778,252.974,439.763,253.185"/>
	<path clip-path="url(#SVGID_2_)" fill="#961914" d="M370.267,303.891c0.493,0.337,0.634,0.8,0.691,1.396
		c0.209,2.152,0.437,4.307,0.784,6.439c0.168,1.036,0.592,2.034,0.941,3.036c0.494,1.424,1.001,2.844,1.552,4.247
		c0.201,0.513-0.159,0.734-0.371,1.051c-2.48,0.227-4.967,0.227-7.448,0.095c-2.394-0.129-4.781-0.382-7.173-0.566
		c-0.757-0.058-1.216-0.469-1.427-1.159c-0.664-2.173-1.216-4.374-1.578-6.62c-0.122-0.761,0.104-1.211,0.793-1.533
		c0.481-0.226,0.971-0.43,1.457-0.643c3.81-1.674,7.558-3.474,11.201-5.491C369.872,304.041,370.074,303.974,370.267,303.891"/>
	<path clip-path="url(#SVGID_2_)" fill="#961914" d="M448.925,338.966c-0.276-0.535-0.047-0.908,0.354-1.272
		c1.57-1.429,3.118-2.878,4.683-4.312c1.089-0.998,1.891-2.229,2.796-3.378c0.748-0.949,1.469-1.921,2.203-2.881
		c0.09-0.118,0.192-0.226,0.286-0.342c0.268-0.331,0.592-0.468,1.008-0.295c0.142,0.182,0.303,0.353,0.425,0.547
		c2.439,3.889,4.874,7.781,7.311,11.671c0.09,0.145,0.181,0.288,0.266,0.436c0.331,0.582,0.336,1.02-0.132,1.518
		c-1.557,1.657-3.131,3.299-4.729,4.916c-0.52,0.526-0.917,0.533-1.56,0.197c-4.181-2.187-8.357-4.374-12.535-6.564
		C449.169,339.138,449.05,339.047,448.925,338.966"/>
	<path clip-path="url(#SVGID_2_)" fill="#961914" d="M378.814,327.586c0.489-0.144,0.82,0.073,1.154,0.422
		c1.188,1.238,2.42,2.437,3.604,3.681c0.898,0.942,1.898,1.747,2.975,2.47c1.336,0.899,2.641,1.843,3.977,2.741
		c0.439,0.295,0.667,0.633,0.548,1.165c-0.651,0.478-1.294,0.964-1.951,1.433c-3.427,2.445-6.857,4.886-10.287,7.328
		c-0.103,0.073-0.208,0.147-0.315,0.217c-0.663,0.437-1.061,0.442-1.672-0.08c-1.147-0.979-2.276-1.983-3.395-2.996
		c-0.473-0.428-0.913-0.893-1.351-1.356c-0.602-0.637-0.643-1.013-0.248-1.772c2.178-4.186,4.354-8.372,6.532-12.557
		c0.098-0.188,0.216-0.365,0.324-0.547c0.036-0.046,0.072-0.094,0.108-0.143L378.814,327.586z"/>
	<path clip-path="url(#SVGID_2_)" fill="#961914" d="M460.566,268.699c-0.515,0.144-0.858-0.088-1.203-0.457
		c-1.129-1.209-2.319-2.362-3.43-3.587c-1.352-1.492-2.949-2.674-4.564-3.844c-1.014-0.733-2.014-1.485-3.019-2.23
		c-0.396-0.293-0.707-0.623-0.476-1.173c0.168-0.128,0.327-0.27,0.506-0.382c4.005-2.53,8.013-5.056,12.021-7.582
		c0.054-0.035,0.109-0.066,0.165-0.098c0.729-0.426,1.104-0.417,1.718,0.165c1.202,1.141,2.381,2.306,3.561,3.471
		c0.378,0.372,0.739,0.764,1.087,1.165c0.531,0.613,0.57,0.963,0.176,1.677c-2.189,3.962-4.177,8.025-6.11,12.116
		c-0.1,0.209-0.231,0.401-0.348,0.601c-0.028,0.051-0.056,0.102-0.083,0.152V268.699z"/>
	<path clip-path="url(#SVGID_2_)" fill="#961914" d="M464.775,318.332c-0.414-0.409-0.42-0.836-0.198-1.376
		c0.831-2.023,1.658-4.053,2.395-6.112c0.412-1.155,0.653-2.371,0.95-3.566c0.364-1.463,0.707-2.93,1.056-4.397
		c0.112-0.475,0.455-0.693,0.879-0.833c1.041,0.616,2.089,1.223,3.121,1.853c2.973,1.819,5.939,3.646,8.905,5.476
		c0.215,0.132,0.426,0.284,0.603,0.463c0.317,0.321,0.442,0.696,0.303,1.163c-0.64,2.137-1.252,4.279-1.896,6.414
		c-0.237,0.787-0.682,1.062-1.521,1.056c-4.676-0.034-9.352-0.063-14.028-0.097C465.154,318.373,464.965,318.348,464.775,318.332"/>
	<path clip-path="url(#SVGID_2_)" fill="#961914" d="M424.801,348.18c0.269-0.446,0.642-0.647,1.184-0.704
		c1.434-0.148,2.855-0.408,4.289-0.558c1.834-0.19,3.576-0.69,5.274-1.385c1.356-0.556,2.74-1.043,4.081-1.632
		c0.547-0.242,0.959-0.224,1.377,0.173c0.023,0.273,0.064,0.548,0.066,0.823c0.027,4.633,0.046,9.265,0.079,13.897
		c0.005,0.671-0.334,1.113-0.901,1.326c-2.188,0.827-4.434,1.466-6.721,1.955c-0.502,0.105-0.871-0.117-1.181-0.464
		c-0.14-0.158-0.245-0.348-0.35-0.531c-2.324-4.126-4.646-8.254-6.966-12.381C424.94,348.534,424.878,348.354,424.801,348.18"/>
	<path clip-path="url(#SVGID_2_)" fill="#961914" d="M414.396,247.708c-0.237,0.553-0.66,0.737-1.255,0.785
		c-2.216,0.179-4.429,0.401-6.64,0.634c-0.459,0.049-0.916,0.184-1.355,0.334c-1.923,0.663-3.85,1.321-5.754,2.037
		c-0.549,0.207-0.97,0.211-1.374-0.215c0.047-1.571,0.056-3.143,0.151-4.711c0.117-1.929,0.294-3.854,0.465-5.78
		c0.124-1.396,0.283-2.789,0.418-4.185c0.073-0.741,0.471-1.195,1.171-1.422c2.186-0.709,4.418-1.223,6.686-1.582
		c0.612-0.097,1.098,0.188,1.406,0.85c0.483,1.039,0.936,2.093,1.416,3.134c1.504,3.257,3.015,6.512,4.522,9.767
		C414.307,247.47,414.349,247.59,414.396,247.708"/>
	<path clip-path="url(#SVGID_2_)" fill="#961914" d="M390.075,256.658c0.102,0.51-0.114,0.863-0.476,1.223
		c-1.581,1.57-3.15,3.154-4.682,4.772c-0.55,0.581-1.013,1.253-1.47,1.914c-1.06,1.537-2.106,3.084-3.13,4.645
		c-0.302,0.46-0.639,0.725-1.204,0.588c-0.679-0.922-1.388-1.825-2.033-2.771c-2.069-3.034-4.115-6.084-6.169-9.128
		c-0.071-0.106-0.142-0.212-0.206-0.322c-0.347-0.597-0.335-0.982,0.108-1.517c0.432-0.524,0.881-1.037,1.351-1.527
		c1.133-1.179,2.271-2.352,3.428-3.507c0.607-0.606,1.014-0.655,1.717-0.331c3.853,1.779,7.708,3.554,11.561,5.333
		c0.36,0.166,0.712,0.35,1.067,0.525c0.048,0.036,0.096,0.072,0.143,0.107L390.075,256.658z"/>
	<path clip-path="url(#SVGID_2_)" fill="#12100B" d="M471.559,272.6c-2.212,0-4.424,0-6.636,0c-0.17,0-0.341,0.014-0.511,0.001
		c-0.593-0.043-0.896-0.538-0.635-1.07c1.98-4.045,3.968-8.086,5.953-12.127c0.037-0.076,0.074-0.154,0.12-0.225
		c0.365-0.577,0.852-0.621,1.285-0.094c0.404,0.493,0.784,1.006,1.169,1.515c2.595,3.431,4.931,7.028,6.964,10.82
		c0.277,0.517,0.271,0.805-0.1,1.05c-0.176,0.116-0.435,0.151-0.655,0.15c-1.766-0.005-3.53-0.027-5.296-0.042
		c-0.553-0.004-1.105-0.001-1.659-0.001V272.6z"/>
	<path clip-path="url(#SVGID_2_)" fill="#12100B" d="M470.837,322.262c2.316,0.041,4.633,0.084,6.95,0.118
		c0.287,0.005,0.535,0.043,0.743,0.275c0.271,0.3,0.246,0.592,0.083,0.932c-1.014,2.104-1.942,4.251-3.049,6.303
		c-1.026,1.903-2.249,3.701-3.37,5.554c-0.64,1.057-1.236,0.715-1.696-0.035c-2.432-3.965-4.898-7.908-7.352-11.86
		c-0.29-0.469-0.282-0.667-0.022-0.969c0.191-0.221,0.441-0.221,0.699-0.227c1.104-0.021,2.21-0.054,3.315-0.064
		c1.232-0.01,2.465-0.002,3.698-0.002V322.262z"/>
	<path clip-path="url(#SVGID_2_)" fill="#12100B" d="M369.656,274.459c-2.619-0.019-5.227-0.177-7.831-0.436
		c-0.756-0.075-1.076-0.564-0.82-1.268c1.474-4.048,3.391-7.871,5.764-11.471c0.674-1.02,1.217-0.798,1.75-0.003
		c2.557,3.81,5.165,7.586,7.756,11.374c0.095,0.14,0.197,0.277,0.291,0.419c0.312,0.471,0.093,0.979-0.48,1.07
		c-0.377,0.059-0.761,0.087-1.142,0.103C373.181,274.323,371.419,274.389,369.656,274.459"/>
	<path clip-path="url(#SVGID_2_)" fill="#12100B" d="M360.935,323.748c1.909,0.118,3.818,0.247,5.728,0.353
		c2.701,0.148,5.4,0.053,8.098-0.115c0.084-0.005,0.169-0.022,0.253-0.026c0.73-0.032,1.047,0.456,0.709,1.102
		c-1.431,2.728-2.862,5.456-4.3,8.18c-0.674,1.278-1.363,2.548-2.045,3.821c-0.04,0.075-0.08,0.149-0.121,0.225
		c-0.489,0.887-0.986,0.946-1.563,0.134c-1.046-1.474-2.095-2.945-3.073-4.464c-1.661-2.574-3.103-5.271-4.355-8.068
		c-0.091-0.204-0.18-0.449-0.151-0.658C360.163,323.873,360.527,323.67,360.935,323.748"/>
	<path clip-path="url(#SVGID_2_)" fill="#12100B" d="M424.53,362.939c-3.824,0.062-7.587-0.457-11.321-1.231
		c-0.041-0.009-0.085-0.012-0.126-0.021c-0.687-0.175-0.906-0.686-0.541-1.285c1.473-2.41,2.953-4.817,4.425-7.231
		c0.807-1.324,1.604-2.655,2.405-3.982c0.088-0.145,0.167-0.3,0.273-0.431c0.325-0.396,0.757-0.383,1.07,0.028
		c0.089,0.116,0.156,0.253,0.228,0.383c2.312,4.182,4.624,8.365,6.935,12.548c0.362,0.656,0.101,1.174-0.67,1.213
		C426.317,362.975,425.423,362.939,424.53,362.939"/>
	<path clip-path="url(#SVGID_2_)" fill="#12100B" d="M415.626,233.092c3.769,0.129,7.503,0.575,11.226,1.142
		c0.146,0.023,0.293,0.052,0.438,0.084c0.712,0.153,0.917,0.657,0.502,1.25c-1.731,2.472-3.472,4.939-5.198,7.415
		c-0.899,1.29-1.779,2.594-2.668,3.892c-0.108,0.158-0.206,0.325-0.331,0.468c-0.314,0.36-0.74,0.352-1.03-0.024
		c-0.115-0.149-0.194-0.329-0.273-0.502c-1.915-4.192-3.829-8.385-5.737-12.579c-0.271-0.596,0.044-1.116,0.711-1.139
		C414.052,233.071,414.839,233.092,415.626,233.092"/>
	<path clip-path="url(#SVGID_2_)" fill="#DF2A1B" d="M394.882,238.583c-0.165,1.905-0.371,3.807-0.484,5.715
		c-0.164,2.736-0.261,5.475-0.385,8.213c-0.004,0.085,0.005,0.171-0.003,0.255c-0.055,0.596-0.54,0.885-1.075,0.632
		c-1.286-0.608-2.565-1.232-3.855-1.835c-2.559-1.194-5.124-2.378-7.686-3.567c-0.192-0.09-0.392-0.168-0.572-0.279
		c-0.526-0.326-0.583-0.796-0.112-1.193c0.682-0.575,1.385-1.127,2.092-1.67c3.461-2.661,7.097-5.048,11.003-7.011
		c0.487-0.245,0.774-0.218,0.99,0.138c0.102,0.168,0.11,0.393,0.162,0.592C394.932,238.577,394.907,238.58,394.882,238.583"/>
	<path clip-path="url(#SVGID_2_)" fill="#DF2A1B" d="M443.771,249.751c0.181-2.373,0.405-5.318,0.634-8.263
		c0.041-0.529,0.097-1.058,0.154-1.586c0.08-0.734,0.556-1.02,1.245-0.746c4.009,1.591,7.777,3.624,11.283,6.14
		c0.086,0.062,0.173,0.124,0.257,0.189c0.638,0.495,0.621,0.961-0.077,1.394c-1.643,1.021-3.304,2.013-4.94,3.043
		c-2.464,1.55-4.914,3.124-7.371,4.686c-0.245,0.156-0.465,0.378-0.805,0.168c-0.317-0.195-0.387-0.468-0.384-0.811
		C443.776,252.753,443.771,251.542,443.771,249.751"/>
	<path clip-path="url(#SVGID_2_)" fill="#DF2A1B" d="M445.714,341.901c0.097,0.042,0.235,0.096,0.366,0.162
		c4.034,2.092,8.067,4.186,12.101,6.278c0.132,0.069,0.268,0.136,0.382,0.228c0.398,0.32,0.415,0.731,0.054,1.093
		c-0.045,0.045-0.095,0.084-0.146,0.123c-3.856,2.986-7.95,5.599-12.316,7.78c-0.454,0.228-0.954-0.042-1.041-0.546
		c-0.021-0.124-0.008-0.255-0.008-0.382c-0.001-0.403,0.002-0.807-0.003-1.211c-0.041-4.122-0.084-8.244-0.125-12.366
		c-0.002-0.211-0.012-0.429,0.033-0.632C445.069,342.165,445.431,341.899,445.714,341.901"/>
	<path clip-path="url(#SVGID_2_)" fill="#DF2A1B" d="M485.229,294.742c-0.078,3.242-0.462,6.447-1.003,9.637
		c-0.019,0.105-0.045,0.208-0.068,0.312c-0.174,0.752-0.647,0.959-1.295,0.558c-3.017-1.87-6.032-3.743-9.05-5.611
		c-0.777-0.48-1.561-0.953-2.341-1.429c-0.108-0.066-0.223-0.126-0.324-0.202c-0.46-0.348-0.444-0.812,0.038-1.143
		c0.087-0.06,0.185-0.105,0.278-0.155c4.129-2.238,8.257-4.476,12.388-6.712c0.675-0.365,1.17-0.122,1.221,0.668
		C485.162,292.021,485.182,293.383,485.229,294.742"/>
	<path clip-path="url(#SVGID_2_)" fill="#DF2A1B" d="M395.325,347.878c0,2.84-0.001,5.137,0.002,7.433
		c0,0.281-0.002,0.551-0.244,0.756c-0.24,0.203-0.468,0.298-0.807,0.174c-4.181-1.517-8.262-3.251-12.084-5.546
		c-0.11-0.065-0.223-0.128-0.322-0.208c-0.427-0.345-0.441-0.762-0.038-1.134c0.078-0.072,0.169-0.129,0.256-0.191
		c3.892-2.74,7.783-5.48,11.675-8.221c0.122-0.085,0.245-0.171,0.371-0.249c0.453-0.283,0.941-0.065,1.036,0.464
		c0.019,0.104,0.011,0.212,0.013,0.318C395.235,343.789,395.286,346.106,395.325,347.878"/>
	<path clip-path="url(#SVGID_2_)" fill="#DF2A1B" d="M355.511,301.717c0.078-3.382,0.44-6.738,0.911-10.083
		c0.018-0.126,0.043-0.251,0.07-0.375c0.154-0.685,0.639-0.877,1.209-0.478c1.863,1.302,3.705,2.635,5.591,3.9
		c1.958,1.313,3.954,2.567,5.942,3.834c0.901,0.574,0.891,1.005-0.067,1.53c-4.044,2.219-8.228,4.143-12.466,5.954
		c-0.606,0.259-1.098-0.022-1.135-0.714c-0.055-1.016-0.04-2.038-0.055-3.057C355.509,302.057,355.511,301.887,355.511,301.717"/>
	<path clip-path="url(#SVGID_2_)" fill="#12100B" d="M419.89,268.366c-0.287-0.109-0.586-0.172-0.829-0.324
		c-1.331-0.836-2.654-1.684-3.967-2.548c-0.687-0.453-0.786-0.889-0.392-1.62c1.145-2.133,2.32-4.249,3.446-6.393
		c0.499-0.951,1.096-0.763,1.522-0.041c1.459,2.468,2.976,4.901,4.476,7.344c0.52,0.846,0.42,1.247-0.474,1.721
		c-0.994,0.527-1.991,1.05-2.993,1.562C420.438,268.19,420.171,268.262,419.89,268.366"/>
	<path clip-path="url(#SVGID_2_)" fill="#12100B" d="M424.666,331.489c-0.044,0.112-0.088,0.278-0.169,0.423
		c-1.274,2.278-2.55,4.557-3.841,6.826c-0.107,0.188-0.3,0.376-0.496,0.454c-0.322,0.129-0.571-0.065-0.737-0.345
		c-0.261-0.438-0.512-0.88-0.769-1.321c-1.238-2.128-2.477-4.255-3.715-6.384c-0.419-0.719-0.297-1.17,0.449-1.548
		c1.117-0.564,2.247-1.106,3.369-1.662c0.501-0.249,0.986-0.222,1.451,0.078c1.284,0.83,2.566,1.662,3.846,2.499
		C424.387,330.727,424.617,331.021,424.666,331.489"/>
	<path clip-path="url(#SVGID_2_)" fill="#12100B" d="M393.771,314.78c0,0.682,0.006,1.361-0.002,2.042
		c-0.008,0.675-0.405,1.115-1.068,1.193c-2.66,0.313-5.322,0.623-7.982,0.935c-0.127,0.016-0.253,0.041-0.38,0.043
		c-0.562,0.009-0.856-0.44-0.606-0.933c0.183-0.36,0.382-0.712,0.581-1.062c1.226-2.164,2.451-4.328,3.682-6.489
		c0.125-0.22,0.263-0.443,0.439-0.622c0.325-0.33,0.701-0.438,1.155-0.21c1.122,0.559,2.263,1.083,3.38,1.651
		c0.637,0.324,0.974,0.838,0.907,1.604c-0.053,0.612-0.011,1.232-0.011,1.848H393.771z"/>
	<path clip-path="url(#SVGID_2_)" fill="#12100B" d="M451.465,277.101c1.252-0.073,2.503-0.146,3.754-0.218
		c0.106-0.006,0.213-0.018,0.318-0.015c0.646,0.022,0.924,0.497,0.626,1.093c-0.465,0.931-0.932,1.861-1.418,2.781
		c-0.773,1.464-1.56,2.922-2.353,4.377c-0.119,0.218-0.278,0.428-0.46,0.598c-0.289,0.271-0.626,0.319-0.997,0.127
		c-1.206-0.626-2.425-1.228-3.625-1.866c-0.579-0.308-0.903-0.785-0.917-1.486c-0.024-1.296-0.104-2.59-0.157-3.885
		c-0.031-0.805,0.346-1.21,1.157-1.258C448.751,277.268,450.107,277.185,451.465,277.101L451.465,277.101z"/>
	<path clip-path="url(#SVGID_2_)" fill="#12100B" d="M444.961,316.115c0-0.638,0.021-1.274-0.006-1.912
		c-0.026-0.641,0.247-1.141,0.745-1.466c1.315-0.858,2.657-1.678,4-2.496c0.361-0.221,0.705-0.144,1.032,0.193
		c0.146,0.148,0.252,0.34,0.357,0.522c1.247,2.175,2.488,4.351,3.735,6.524c0.432,0.754,0.204,1.193-0.688,1.25
		c-1.888,0.12-3.775,0.223-5.663,0.333c-0.785,0.046-1.569,0.099-2.354,0.134c-0.83,0.039-1.19-0.32-1.191-1.171
		c-0.002-0.637-0.001-1.273-0.001-1.912H444.961z"/>
	<path clip-path="url(#SVGID_2_)" fill="#12100B" d="M395.207,279.457c0,0.552-0.038,1.107,0.01,1.655
		c0.061,0.699-0.233,1.202-0.77,1.573c-1.206,0.833-2.425,1.647-3.645,2.458c-0.418,0.277-0.729,0.251-1.095-0.078
		c-0.155-0.139-0.276-0.32-0.393-0.495c-1.391-2.084-2.776-4.172-4.169-6.256c-0.463-0.693-0.281-1.167,0.556-1.273
		c2.044-0.257,4.091-0.486,6.138-0.718c0.654-0.074,1.311-0.123,1.967-0.174c0.662-0.051,1.103,0.292,1.169,0.957
		c0.078,0.781,0.112,1.567,0.165,2.351H395.207z"/>
	<path clip-path="url(#SVGID_2_)" fill="#DF2A1B" d="M390.755,297.29c-0.088,0.224-0.143,0.432-0.246,0.611
		c-0.392,0.679-0.796,1.352-1.204,2.021c-0.409,0.669-0.825,1.334-1.246,1.995c-0.101,0.16-0.223,0.31-0.352,0.447
		c-0.323,0.347-0.693,0.462-1.147,0.245c-0.631-0.3-1.275-0.576-1.908-0.874c-1.556-0.729-3.1-1.485-4.667-2.19
		c-0.855-0.385-1.093-1.015-0.111-1.645c2.159-1.384,4.262-2.855,6.388-4.291c0.35-0.237,0.688-0.497,1.049-0.715
		c0.537-0.326,0.932-0.23,1.297,0.293c0.145,0.209,0.268,0.433,0.391,0.655c0.475,0.852,0.955,1.702,1.412,2.563
		C390.558,296.682,390.641,296.992,390.755,297.29"/>
	<path clip-path="url(#SVGID_2_)" fill="#DF2A1B" d="M453.06,302.871c-0.451-0.02-0.72-0.175-0.91-0.453
		c-0.096-0.139-0.159-0.299-0.238-0.449c-0.521-0.997-1.033-1.999-1.564-2.991c-0.32-0.596-0.316-1.132,0.071-1.72
		c0.793-1.204,1.521-2.449,2.298-3.664c0.492-0.772,0.922-0.853,1.706-0.417c1.612,0.898,3.232,1.782,4.846,2.677
		c0.575,0.319,1.143,0.651,1.712,0.979c0.092,0.053,0.186,0.107,0.265,0.175c0.451,0.386,0.417,0.826-0.096,1.132
		c-0.765,0.455-1.54,0.895-2.306,1.35c-1.694,1.007-3.385,2.023-5.081,3.028C453.511,302.667,453.238,302.781,453.06,302.871"/>
	<path clip-path="url(#SVGID_2_)" fill="#DF2A1B" d="M401.505,322.269c0.552,0,1.104,0.013,1.656-0.003
		c0.903-0.021,1.588,0.317,2.045,1.12c0.492,0.865,1.013,1.713,1.519,2.571c0.194,0.329,0.393,0.655,0.564,0.996
		c0.279,0.555,0.203,0.887-0.284,1.276c-0.147,0.117-0.324,0.198-0.49,0.292c-1.823,1.035-3.648,2.069-5.471,3.105
		c-0.388,0.22-0.77,0.447-1.153,0.673c-0.465,0.276-0.937,0.104-1.091-0.409c-0.03-0.1-0.035-0.209-0.039-0.312
		c-0.046-1.461-0.089-2.922-0.135-4.383c-0.038-1.186-0.096-2.369-0.119-3.556c-0.018-0.942,0.409-1.363,1.342-1.371
		C400.401,322.265,400.953,322.268,401.505,322.269"/>
	<path clip-path="url(#SVGID_2_)" fill="#DF2A1B" d="M403.852,271.168c-1.25-0.026-2.5-0.049-3.75-0.078
		c-0.466-0.011-0.88-0.304-0.961-0.759c-0.118-0.664-0.183-1.339-0.254-2.011c-0.129-1.219-0.262-2.438-0.362-3.659
		c-0.079-0.971-0.131-1.945-0.156-2.918c-0.017-0.644,0.385-0.887,0.955-0.581c1.346,0.723,2.686,1.458,4.013,2.213
		c1.087,0.619,2.153,1.275,3.227,1.916c0.182,0.108,0.368,0.213,0.538,0.339c0.475,0.354,0.571,0.74,0.313,1.28
		c-0.502,1.054-1,2.11-1.528,3.151c-0.15,0.295-0.384,0.553-0.603,0.808C404.893,271.321,404.353,271.193,403.852,271.168"/>
	<path clip-path="url(#SVGID_2_)" fill="#DF2A1B" d="M440.622,332.46c0,0.361,0.007,0.724-0.002,1.084
		c-0.017,0.71-0.419,0.978-1.025,0.65c-1.889-1.013-3.769-2.044-5.65-3.07c-0.447-0.243-0.896-0.484-1.334-0.746
		c-0.216-0.129-0.427-0.277-0.607-0.453c-0.394-0.377-0.454-0.651-0.2-1.138c0.638-1.223,1.274-2.449,1.966-3.643
		c0.308-0.533,0.818-0.841,1.481-0.837c1.34,0.006,2.68-0.012,4.019-0.012c0.677,0,1.052,0.368,1.085,1.045
		c0.001,0.021,0,0.043,0,0.064c0.047,1.675,0.083,3.351,0.145,5.027c0.024,0.675,0.104,1.349,0.157,2.024
		C440.645,332.458,440.633,332.459,440.622,332.46"/>
	<path clip-path="url(#SVGID_2_)" fill="#DF2A1B" d="M437.573,273.135c-0.511,0-1.025-0.042-1.529,0.01
		c-0.762,0.078-1.264-0.29-1.652-0.864c-0.798-1.177-1.579-2.364-2.359-3.552c-0.348-0.529-0.281-0.953,0.231-1.31
		c0.47-0.327,0.965-0.617,1.45-0.921c1.744-1.091,3.487-2.182,5.231-3.273c0.09-0.057,0.17-0.128,0.264-0.178
		c0.48-0.259,0.96-0.021,1.018,0.533c0.103,0.988,0.17,1.98,0.264,2.969c0.105,1.115,0.232,2.229,0.339,3.342
		c0.067,0.717,0.135,1.434,0.164,2.152c0.021,0.506-0.316,0.905-0.82,0.955c-0.863,0.086-1.73,0.123-2.597,0.181L437.573,273.135z"
		/>
	<path clip-path="url(#SVGID_2_)" fill="#D18B71" d="M465.767,276.544c-0.166,0.003-0.333,0.007-0.5,0.011
		C465.434,276.551,465.601,276.547,465.767,276.544"/>
	<path clip-path="url(#SVGID_2_)" fill="#D9AA3F" d="M390.08,256.663c-0.047-0.036-0.095-0.071-0.143-0.107
		C389.984,256.591,390.033,256.626,390.08,256.663"/>
	<path clip-path="url(#SVGID_2_)" fill="#D9AA3F" d="M460.566,268.694c0.027-0.05,0.055-0.101,0.083-0.152
		C460.621,268.593,460.594,268.644,460.566,268.694"/>
	<path clip-path="url(#SVGID_2_)" fill="#D9AA3F" d="M378.818,327.591c-0.036,0.048-0.072,0.097-0.108,0.144
		C378.746,327.688,378.782,327.639,378.818,327.591"/>
	<path clip-path="url(#SVGID_2_)" fill="#12100B" d="M414.619,291.86c0.531,0,1.065-0.028,1.594,0.007
		c0.755,0.05,1.31-0.273,1.759-0.837c0.661-0.832,1.324-1.661,1.98-2.497c0.725-0.926,1.112-0.911,1.756,0.09
		c0.598,0.929,1.199,1.856,1.774,2.798c0.452,0.737,1.048,1.172,1.939,1.262c1.14,0.113,2.27,0.317,3.404,0.486
		c0.718,0.107,0.976,0.59,0.642,1.224c-0.584,1.109-1.167,2.219-1.78,3.312c-0.362,0.644-0.399,1.256-0.112,1.944
		c0.45,1.078,0.842,2.179,1.252,3.272c0.293,0.782,0.002,1.209-0.854,1.243c-1.167,0.047-2.335,0.111-3.502,0.106
		c-0.773-0.004-1.347,0.3-1.816,0.875c-0.714,0.872-1.43,1.74-2.146,2.609c-0.094,0.114-0.181,0.237-0.29,0.339
		c-0.365,0.337-0.713,0.326-1.054-0.042c-0.128-0.139-0.227-0.308-0.325-0.471c-0.558-0.929-1.122-1.853-1.664-2.792
		c-0.427-0.738-0.991-1.228-1.881-1.354c-1.071-0.153-2.129-0.389-3.191-0.598c-0.308-0.062-0.636-0.091-0.849-0.381
		c-0.208-0.283-0.247-0.54-0.052-0.873c0.603-1.024,1.142-2.089,1.758-3.105c0.435-0.717,0.494-1.397,0.164-2.173
		c-0.467-1.093-0.867-2.215-1.292-3.325c-0.267-0.699,0.049-1.161,0.81-1.171c0.658-0.009,1.317-0.002,1.975-0.002V291.86z
		 M416.879,294.271c-0.297-0.014-0.594-0.05-0.89-0.039c-0.589,0.024-0.917,0.498-0.727,1.053c0.178,0.522,0.372,1.039,0.581,1.55
		c0.236,0.576,0.18,1.119-0.12,1.65c-0.251,0.444-0.509,0.883-0.751,1.331c-0.322,0.595-0.105,1.089,0.556,1.248
		c0.433,0.104,0.871,0.201,1.311,0.254c0.786,0.097,1.323,0.526,1.713,1.182c0.239,0.402,0.47,0.81,0.721,1.202
		c0.39,0.611,0.854,0.653,1.338,0.119c0.343-0.378,0.655-0.781,0.993-1.162c0.43-0.484,0.948-0.756,1.624-0.726
		c0.507,0.021,1.02-0.012,1.526-0.052c0.6-0.048,0.892-0.504,0.696-1.062c-0.154-0.44-0.309-0.882-0.492-1.31
		c-0.3-0.697-0.272-1.355,0.13-2.006c0.224-0.36,0.41-0.743,0.615-1.115c0.409-0.742,0.2-1.178-0.654-1.344
		c-0.396-0.077-0.791-0.167-1.191-0.2c-0.77-0.063-1.3-0.471-1.696-1.095c-0.25-0.394-0.479-0.802-0.737-1.191
		c-0.467-0.709-0.918-0.735-1.46-0.09c-0.273,0.325-0.527,0.666-0.801,0.991c-0.462,0.548-1.024,0.885-1.774,0.813
		C417.22,294.257,417.049,294.271,416.879,294.271"/>
</g>
</svg>
